<?xml version="1.0" standalone="no"?>
<!DOCTYPE svg PUBLIC "-//W3C//DTD SVG 20010904//EN"
 "http://www.w3.org/TR/2001/REC-SVG-20010904/DTD/svg10.dtd">
<svg version="1.0" xmlns="http://www.w3.org/2000/svg"
 width="200.000000pt" height="200.000000pt" viewBox="0 0 200.000000 200.000000"
 preserveAspectRatio="xMidYMid meet">
<metadata>
Created by potrace 1.14, written by Peter Selinger 2001-2017
</metadata>
<g transform="translate(0.000000,200.000000) scale(0.100000,-0.100000)"
fill="#000000" stroke="none">
<path d="M960 1821 c-14 -5 -74 -37 -135 -73 -60 -35 -180 -104 -265 -152
-215 -122 -247 -144 -273 -180 -22 -31 -22 -35 -23 -396 0 -201 3 -381 7 -400
8 -38 57 -87 118 -117 20 -11 144 -82 276 -158 304 -176 309 -178 353 -170 19
3 121 56 226 117 105 61 246 142 312 180 131 74 160 99 172 144 5 16 8 196 7
401 -1 435 9 397 -126 479 -240 145 -566 326 -593 329 -17 3 -42 0 -56 -4z"/>
</g>
</svg>
